<?xml version="1.0" encoding="UTF-8" standalone="no"?>
<svg
   xmlns:dc="http://purl.org/dc/elements/1.1/"
   xmlns:cc="http://creativecommons.org/ns#"
   xmlns:rdf="http://www.w3.org/1999/02/22-rdf-syntax-ns#"
   xmlns:svg="http://www.w3.org/2000/svg"
   xmlns="http://www.w3.org/2000/svg"
   xmlns:sodipodi="http://sodipodi.sourceforge.net/DTD/sodipodi-0.dtd"
   xmlns:inkscape="http://www.inkscape.org/namespaces/inkscape"
   width="852.7583"
   height="666.85303"
   version="1.1"
   id="svg198"
   sodipodi:docname="nn_logreg.svg"
   inkscape:version="1.0.2 (1.0.2+r75+1)">
  <metadata
     id="metadata202">
    <rdf:RDF>
      <cc:Work
         rdf:about="">
        <dc:format>image/svg+xml</dc:format>
        <dc:type
           rdf:resource="http://purl.org/dc/dcmitype/StillImage" />
        <dc:title></dc:title>
      </cc:Work>
    </rdf:RDF>
  </metadata>
  <sodipodi:namedview
     pagecolor="#ffffff"
     bordercolor="#666666"
     borderopacity="1"
     objecttolerance="10"
     gridtolerance="10"
     guidetolerance="10"
     inkscape:pageopacity="0"
     inkscape:pageshadow="2"
     inkscape:window-width="1920"
     inkscape:window-height="1016"
     id="namedview200"
     showgrid="false"
     inkscape:zoom="0.7671875"
     inkscape:cx="140.95379"
     inkscape:cy="322.61656"
     inkscape:window-x="0"
     inkscape:window-y="27"
     inkscape:window-maximized="1"
     inkscape:current-layer="svg198" />
  <g
     transform="matrix(1.3717333,0,0,1.3717333,-971.57403,-361.16612)"
     id="g191">
    <path
       class="link"
       style="stroke:#505050;stroke-width:0.5px;stroke-opacity:1"
       marker-end=""
       d="m 746.66667,285 180,100"
       id="path2" />
    <path
       class="link"
       style="stroke:#505050;stroke-width:0.5px;stroke-opacity:1"
       marker-end=""
       d="m 746.66667,285 180,140"
       id="path4" />
    <path
       class="link"
       style="stroke:#505050;stroke-width:0.5px;stroke-opacity:1"
       marker-end=""
       d="m 746.66667,285 180,180"
       id="path6" />
    <path
       class="link"
       style="stroke:#505050;stroke-width:0.5px;stroke-opacity:1"
       marker-end=""
       d="m 746.66667,325 180,60"
       id="path8" />
    <path
       class="link"
       style="stroke:#505050;stroke-width:0.5px;stroke-opacity:1"
       marker-end=""
       d="m 746.66667,325 180,100"
       id="path10" />
    <path
       class="link"
       style="stroke:#505050;stroke-width:0.5px;stroke-opacity:1"
       marker-end=""
       d="m 746.66667,325 180,140"
       id="path12" />
    <path
       class="link"
       style="stroke:#505050;stroke-width:0.5px;stroke-opacity:1"
       marker-end=""
       d="m 746.66667,365 180,20"
       id="path14" />
    <path
       class="link"
       style="stroke:#505050;stroke-width:0.5px;stroke-opacity:1"
       marker-end=""
       d="m 746.66667,365 180,60"
       id="path16" />
    <path
       class="link"
       style="stroke:#505050;stroke-width:0.5px;stroke-opacity:1"
       marker-end=""
       d="m 746.66667,365 180,100"
       id="path18" />
    <path
       class="link"
       style="stroke:#505050;stroke-width:0.5px;stroke-opacity:1"
       marker-end=""
       d="m 746.66667,405 180,-20"
       id="path20" />
    <path
       class="link"
       style="stroke:#505050;stroke-width:0.5px;stroke-opacity:1"
       marker-end=""
       d="m 746.66667,405 180,20"
       id="path22" />
    <path
       class="link"
       style="stroke:#505050;stroke-width:0.5px;stroke-opacity:1"
       marker-end=""
       d="m 746.66667,405 180,60"
       id="path24" />
    <path
       class="link"
       style="stroke:#505050;stroke-width:0.5px;stroke-opacity:1"
       marker-end=""
       d="m 746.66667,445 180,-60"
       id="path26" />
    <path
       class="link"
       style="stroke:#505050;stroke-width:0.5px;stroke-opacity:1"
       marker-end=""
       d="m 746.66667,445 180,-20"
       id="path28" />
    <path
       class="link"
       style="stroke:#505050;stroke-width:0.5px;stroke-opacity:1"
       marker-end=""
       d="m 746.66667,445 180,20"
       id="path30" />
    <path
       class="link"
       style="stroke:#505050;stroke-width:0.5px;stroke-opacity:1"
       marker-end=""
       d="M 926.66667,385 H 1106.6667"
       id="path32" />
    <path
       class="link"
       style="stroke:#505050;stroke-width:0.5px;stroke-opacity:1"
       marker-end=""
       d="M 926.66667,425 1106.6667,385"
       id="path34" />
    <path
       class="link"
       style="stroke:#505050;stroke-width:0.5px;stroke-opacity:1"
       marker-end=""
       d="M 926.66667,465 1106.6667,385"
       id="path36" />
    <path
       class="link"
       style="stroke:#505050;stroke-width:0.5px;stroke-opacity:1"
       marker-end=""
       d="m 746.66667,485 180,-100"
       id="path38" />
    <path
       class="link"
       style="stroke:#505050;stroke-width:0.5px;stroke-opacity:1"
       marker-end=""
       d="m 746.66667,485 180,-60"
       id="path40" />
    <path
       class="link"
       style="stroke:#505050;stroke-width:0.5px;stroke-opacity:1"
       marker-end=""
       d="m 746.66667,485 180,-20"
       id="path42" />
    <path
       class="link"
       style="stroke:#505050;stroke-width:0.5px;stroke-opacity:1"
       marker-end=""
       d="m 746.66667,525 180,-140"
       id="path44" />
    <path
       class="link"
       style="stroke:#505050;stroke-width:0.5px;stroke-opacity:1"
       marker-end=""
       d="m 746.66667,525 180,-100"
       id="path46" />
    <path
       class="link"
       style="stroke:#505050;stroke-width:0.5px;stroke-opacity:1"
       marker-end=""
       d="m 746.66667,525 180,-60"
       id="path48" />
    <path
       class="link"
       style="stroke:#505050;stroke-width:0.5px;stroke-opacity:1"
       marker-end=""
       d="m 746.66667,565 180,-180"
       id="path50" />
    <path
       class="link"
       style="stroke:#505050;stroke-width:0.5px;stroke-opacity:1"
       marker-end=""
       d="m 746.66667,565 180,-140"
       id="path52" />
    <path
       class="link"
       style="stroke:#505050;stroke-width:0.5px;stroke-opacity:1"
       marker-end=""
       d="m 746.66667,565 180,-100"
       id="path54" />
    <path
       class="link"
       style="stroke:#505050;stroke-width:0.5px;stroke-opacity:1"
       marker-end=""
       d="m 746.66667,605 180,-220"
       id="path56" />
    <path
       class="link"
       style="stroke:#505050;stroke-width:0.5px;stroke-opacity:1"
       marker-end=""
       d="m 746.66667,605 180,-180"
       id="path58" />
    <path
       class="link"
       style="stroke:#505050;stroke-width:0.5px;stroke-opacity:1"
       marker-end=""
       d="m 746.66667,605 180,-140"
       id="path60" />
    <path
       class="link"
       style="stroke:#505050;stroke-width:0.5px;stroke-opacity:1"
       marker-end=""
       d="m 746.66667,645 180,-260"
       id="path62" />
    <path
       class="link"
       style="stroke:#505050;stroke-width:0.5px;stroke-opacity:1"
       marker-end=""
       d="m 746.66667,645 180,-220"
       id="path64" />
    <path
       class="link"
       style="stroke:#505050;stroke-width:0.5px;stroke-opacity:1"
       marker-end=""
       d="m 746.66667,645 180,-180"
       id="path66" />
    <path
       class="link"
       style="stroke:#505050;stroke-width:0.5px;stroke-opacity:1"
       marker-end=""
       d="m 746.66667,285 180,220"
       id="path68" />
    <path
       class="link"
       style="stroke:#505050;stroke-width:0.5px;stroke-opacity:1"
       marker-end=""
       d="m 746.66667,285 180,260"
       id="path70" />
    <path
       class="link"
       style="stroke:#505050;stroke-width:0.5px;stroke-opacity:1"
       marker-end=""
       d="m 746.66667,325 180,180"
       id="path72" />
    <path
       class="link"
       style="stroke:#505050;stroke-width:0.5px;stroke-opacity:1"
       marker-end=""
       d="m 746.66667,325 180,220"
       id="path74" />
    <path
       class="link"
       style="stroke:#505050;stroke-width:0.5px;stroke-opacity:1"
       marker-end=""
       d="m 746.66667,365 180,140"
       id="path76" />
    <path
       class="link"
       style="stroke:#505050;stroke-width:0.5px;stroke-opacity:1"
       marker-end=""
       d="m 746.66667,365 180,180"
       id="path78" />
    <path
       class="link"
       style="stroke:#505050;stroke-width:0.5px;stroke-opacity:1"
       marker-end=""
       d="m 746.66667,405 180,100"
       id="path80" />
    <path
       class="link"
       style="stroke:#505050;stroke-width:0.5px;stroke-opacity:1"
       marker-end=""
       d="m 746.66667,405 180,140"
       id="path82" />
    <path
       class="link"
       style="stroke:#505050;stroke-width:0.5px;stroke-opacity:1"
       marker-end=""
       d="m 746.66667,445 180,60"
       id="path84" />
    <path
       class="link"
       style="stroke:#505050;stroke-width:0.5px;stroke-opacity:1"
       marker-end=""
       d="m 746.66667,445 180,100"
       id="path86" />
    <path
       class="link"
       style="stroke:#505050;stroke-width:0.5px;stroke-opacity:1"
       marker-end=""
       d="m 746.66667,485 180,20"
       id="path88" />
    <path
       class="link"
       style="stroke:#505050;stroke-width:0.5px;stroke-opacity:1"
       marker-end=""
       d="m 746.66667,485 180,60"
       id="path90" />
    <path
       class="link"
       style="stroke:#505050;stroke-width:0.5px;stroke-opacity:1"
       marker-end=""
       d="m 746.66667,525 180,-20"
       id="path92" />
    <path
       class="link"
       style="stroke:#505050;stroke-width:0.5px;stroke-opacity:1"
       marker-end=""
       d="m 746.66667,525 180,20"
       id="path94" />
    <path
       class="link"
       style="stroke:#505050;stroke-width:0.5px;stroke-opacity:1"
       marker-end=""
       d="m 746.66667,565 180,-60"
       id="path96" />
    <path
       class="link"
       style="stroke:#505050;stroke-width:0.5px;stroke-opacity:1"
       marker-end=""
       d="m 746.66667,565 180,-20"
       id="path98" />
    <path
       class="link"
       style="stroke:#505050;stroke-width:0.5px;stroke-opacity:1"
       marker-end=""
       d="m 746.66667,605 180,-100"
       id="path100" />
    <path
       class="link"
       style="stroke:#505050;stroke-width:0.5px;stroke-opacity:1"
       marker-end=""
       d="m 746.66667,605 180,-60"
       id="path102" />
    <path
       class="link"
       style="stroke:#505050;stroke-width:0.5px;stroke-opacity:1"
       marker-end=""
       d="m 746.66667,645 180,-140"
       id="path104" />
    <path
       class="link"
       style="stroke:#505050;stroke-width:0.5px;stroke-opacity:1"
       marker-end=""
       d="m 746.66667,645 180,-100"
       id="path106" />
    <path
       class="link"
       style="stroke:#505050;stroke-width:0.5px;stroke-opacity:1"
       marker-end=""
       d="M 926.66667,505 1106.6667,385"
       id="path108" />
    <path
       class="link"
       style="stroke:#505050;stroke-width:0.5px;stroke-opacity:1"
       marker-end=""
       d="M 926.66667,545 1106.6667,385"
       id="path110" />
    <path
       class="link"
       style="stroke:#505050;stroke-width:0.5px;stroke-opacity:1"
       marker-end=""
       d="m 926.66667,385 180.00003,40"
       id="path112" />
    <path
       class="link"
       style="stroke:#505050;stroke-width:0.5px;stroke-opacity:1"
       marker-end=""
       d="m 926.66667,385 180.00003,80"
       id="path114" />
    <path
       class="link"
       style="stroke:#505050;stroke-width:0.5px;stroke-opacity:1"
       marker-end=""
       d="M 926.66667,385 1106.6667,505"
       id="path116" />
    <path
       class="link"
       style="stroke:#505050;stroke-width:0.5px;stroke-opacity:1"
       marker-end=""
       d="M 926.66667,385 1106.6667,545"
       id="path118" />
    <path
       class="link"
       style="stroke:#505050;stroke-width:0.5px;stroke-opacity:1"
       marker-end=""
       d="M 926.66667,425 H 1106.6667"
       id="path120" />
    <path
       class="link"
       style="stroke:#505050;stroke-width:0.5px;stroke-opacity:1"
       marker-end=""
       d="m 926.66667,425 180.00003,40"
       id="path122" />
    <path
       class="link"
       style="stroke:#505050;stroke-width:0.5px;stroke-opacity:1"
       marker-end=""
       d="m 926.66667,425 180.00003,80"
       id="path124" />
    <path
       class="link"
       style="stroke:#505050;stroke-width:0.5px;stroke-opacity:1"
       marker-end=""
       d="M 926.66667,425 1106.6667,545"
       id="path126" />
    <path
       class="link"
       style="stroke:#505050;stroke-width:0.5px;stroke-opacity:1"
       marker-end=""
       d="M 926.66667,465 1106.6667,425"
       id="path128" />
    <path
       class="link"
       style="stroke:#505050;stroke-width:0.5px;stroke-opacity:1"
       marker-end=""
       d="M 926.66667,465 H 1106.6667"
       id="path130" />
    <path
       class="link"
       style="stroke:#505050;stroke-width:0.5px;stroke-opacity:1"
       marker-end=""
       d="m 926.66667,465 180.00003,40"
       id="path132" />
    <path
       class="link"
       style="stroke:#505050;stroke-width:0.5px;stroke-opacity:1"
       marker-end=""
       d="m 926.66667,465 180.00003,80"
       id="path134" />
    <path
       class="link"
       style="stroke:#505050;stroke-width:0.5px;stroke-opacity:1"
       marker-end=""
       d="M 926.66667,505 1106.6667,425"
       id="path136" />
    <path
       class="link"
       style="stroke:#505050;stroke-width:0.5px;stroke-opacity:1"
       marker-end=""
       d="M 926.66667,505 1106.6667,465"
       id="path138" />
    <path
       class="link"
       style="stroke:#505050;stroke-width:0.5px;stroke-opacity:1"
       marker-end=""
       d="M 926.66667,505 H 1106.6667"
       id="path140" />
    <path
       class="link"
       style="stroke:#505050;stroke-width:0.5px;stroke-opacity:1"
       marker-end=""
       d="m 926.66667,505 180.00003,40"
       id="path142" />
    <path
       class="link"
       style="stroke:#505050;stroke-width:0.5px;stroke-opacity:1"
       marker-end=""
       d="M 926.66667,545 1106.6667,425"
       id="path144" />
    <path
       class="link"
       style="stroke:#505050;stroke-width:0.5px;stroke-opacity:1"
       marker-end=""
       d="M 926.66667,545 1106.6667,465"
       id="path146" />
    <path
       class="link"
       style="stroke:#505050;stroke-width:0.5px;stroke-opacity:1"
       marker-end=""
       d="M 926.66667,545 1106.6667,505"
       id="path148" />
    <path
       class="link"
       style="stroke:#505050;stroke-width:0.5px;stroke-opacity:1"
       marker-end=""
       d="M 926.66667,545 H 1106.6667"
       id="path150" />
    <path
       class="link"
       style="stroke:#505050;stroke-width:0.5px;stroke-opacity:1"
       marker-end=""
       d="m 1106.6667,385 180,80"
       id="path152" />
    <path
       class="link"
       style="stroke:#505050;stroke-width:0.5px;stroke-opacity:1"
       marker-end=""
       d="m 1106.6667,425 180,40"
       id="path154" />
    <path
       class="link"
       style="stroke:#505050;stroke-width:0.5px;stroke-opacity:1"
       marker-end=""
       d="m 1106.6667,465 h 180"
       id="path156" />
    <path
       class="link"
       style="stroke:#505050;stroke-width:0.5px;stroke-opacity:1"
       marker-end=""
       d="m 1106.6667,505 180,-40"
       id="path158" />
    <path
       class="link"
       style="stroke:#505050;stroke-width:0.5px;stroke-opacity:1"
       marker-end=""
       d="m 1106.6667,545 180,-80"
       id="path160" />
    <circle
       r="10"
       class="node"
       id="0_0"
       style="fill:#ffffff;stroke:#333333"
       cx="746.66669"
       cy="285" />
    <circle
       r="10"
       class="node"
       id="0_1"
       style="fill:#ffffff;stroke:#333333"
       cx="746.66669"
       cy="325" />
    <circle
       r="10"
       class="node"
       id="0_2"
       style="fill:#ffffff;stroke:#333333"
       cx="746.66669"
       cy="365" />
    <circle
       r="10"
       class="node"
       id="0_3"
       style="fill:#ffffff;stroke:#333333"
       cx="746.66669"
       cy="405" />
    <circle
       r="10"
       class="node"
       id="0_4"
       style="fill:#ffffff;stroke:#333333"
       cx="746.66669"
       cy="445" />
    <circle
       r="10"
       class="node"
       id="0_5"
       style="fill:#ffffff;stroke:#333333"
       cx="746.66669"
       cy="485" />
    <circle
       r="10"
       class="node"
       id="0_6"
       style="fill:#ffffff;stroke:#333333"
       cx="746.66669"
       cy="525" />
    <circle
       r="10"
       class="node"
       id="0_7"
       style="fill:#ffffff;stroke:#333333"
       cx="746.66669"
       cy="565" />
    <circle
       r="10"
       class="node"
       id="0_8"
       style="fill:#ffffff;stroke:#333333"
       cx="746.66669"
       cy="605" />
    <circle
       r="10"
       class="node"
       id="0_9"
       style="fill:#ffffff;stroke:#333333"
       cx="746.66669"
       cy="645" />
    <circle
       r="10"
       class="node"
       id="1_0"
       style="fill:#ffffff;stroke:#333333"
       cx="926.66669"
       cy="385" />
    <circle
       r="10"
       class="node"
       id="1_1"
       style="fill:#ffffff;stroke:#333333"
       cx="926.66669"
       cy="425" />
    <circle
       r="10"
       class="node"
       id="1_2"
       style="fill:#ffffff;stroke:#333333"
       cx="926.66669"
       cy="465" />
    <circle
       r="10"
       class="node"
       id="1_3"
       style="fill:#ffffff;stroke:#333333"
       cx="926.66669"
       cy="505" />
    <circle
       r="10"
       class="node"
       id="1_4"
       style="fill:#ffffff;stroke:#333333"
       cx="926.66669"
       cy="545" />
    <circle
       r="10"
       class="node"
       id="2_0"
       style="fill:#ffffff;stroke:#333333"
       cx="1106.6666"
       cy="385" />
    <text
       class="text"
       dy="0.34999999em"
       style="font-size:12px"
       x="711.66669"
       y="685"
       id="text178" />
    <text
       class="text"
       dy="0.34999999em"
       style="font-size:12px"
       x="891.66669"
       y="685"
       id="text180" />
    <text
       class="text"
       dy="0.34999999em"
       style="font-size:12px"
       x="1071.6666"
       y="685"
       id="text182" />
    <circle
       r="10"
       class="node"
       id="2_1"
       style="fill:#ffffff;stroke:#333333"
       cx="1106.6666"
       cy="425" />
    <circle
       r="10"
       class="node"
       id="2_2"
       style="fill:#ffffff;stroke:#333333"
       cx="1106.6666"
       cy="465" />
    <circle
       r="10"
       class="node"
       id="2_3"
       style="fill:#ffffff;stroke:#333333"
       cx="1106.6666"
       cy="505" />
    <circle
       r="10"
       class="node"
       id="2_4"
       style="fill:#ffffff;stroke:#333333"
       cx="1106.6666"
       cy="545" />
    <circle
       r="10"
       class="node"
       id="3_0"
       style="fill:#ffffff;stroke:#333333"
       cx="1286.6666"
       cy="465" />
    <text
       class="text"
       dy="0.34999999em"
       style="font-size:12px"
       x="1251.6666"
       y="685"
       id="text189" />
  </g>
  <defs
     id="defs196">
    <marker
       id="arrow"
       viewBox="0 -5 10 10"
       markerWidth="7"
       markerHeight="7"
       orient="auto"
       refX="40">
      <path
         d="M 0,-5 10,0 0,5"
         style="fill:none;stroke:#505050"
         id="path193" />
    </marker>
  </defs>
  <g
     aria-label="Features"
     id="text2222"
     style="font-style:normal;font-weight:normal;font-size:40px;line-height:1.25;font-family:sans-serif;letter-spacing:0px;word-spacing:0px;fill:#000000;fill-opacity:1;stroke:none"
     transform="translate(-815.53147,-172.80541)">
    <path
       d="m 841.84134,754.58636 h -0.59895 q -0.20834,-1.58855 -0.78126,-2.03126 -0.54687,-0.4427 -2.08333,-0.4427 l -3.77605,-0.0521 v 5.70313 q 0,1.45834 0.46875,1.90105 0.46875,0.44271 1.90105,0.44271 v 0.49479 h -7.29168 v -0.49479 q 1.43229,0 1.84896,-0.49479 0.41667,-0.4948 0.41667,-2.13542 v -11.27606 q 0,-1.48438 -0.46875,-1.90104 -0.46875,-0.44271 -1.79688,-0.44271 v -0.4948 h 13.82814 l 0.0781,3.72397 h -0.65104 q -0.28646,-1.71875 -1.04167,-2.21355 -0.72917,-0.52083 -2.91667,-0.52083 h -3.54167 q -0.52084,0 -0.67709,0.15625 -0.15625,0.15625 -0.15625,0.72917 v 5.78125 h 3.77605 q 1.58854,0 2.10938,-0.46875 0.54687,-0.49479 0.75521,-2.00521 h 0.59895 z m 0,0 h -0.59895 q -0.20834,-1.58855 -0.78126,-2.03126 -0.54687,-0.4427 -2.08333,-0.4427 h -3.77605 v 5.65104 q 0,1.45834 0.46875,1.90105 0.46875,0.44271 1.90105,0.44271 v 0.49479 h -7.29168 v -0.49479 q 1.43229,0 1.84896,-0.49479 0.41667,-0.4948 0.41667,-2.13542 v -11.27606 q 0,-1.48438 -0.46875,-1.90104 -0.46875,-0.44271 -1.79688,-0.44271 v -0.4948 h 13.82814 v 3.72397 h -0.57291 q -0.28646,-1.71875 -1.04167,-2.21355 -0.72917,-0.52083 -2.91667,-0.52083 h -3.54167 q -0.52084,0 -0.67709,0.15625 -0.15625,0.15625 -0.15625,0.72917 v 5.78125 h 3.77605 q 1.58854,0 2.10938,-0.46875 0.54687,-0.49479 0.75521,-2.00521 h 0.59895 z"
       style="font-style:normal;font-variant:normal;font-weight:normal;font-stretch:normal;font-size:26.6667px;font-family:aakar;-inkscape-font-specification:'aakar, Normal';font-variant-ligatures:normal;font-variant-caps:normal;font-variant-numeric:normal;font-variant-east-asian:normal"
       id="path2236" />
    <path
       d="m 854.47157,756.33115 0.41667,0.18229 q -0.44271,1.35417 -1.4323,2.47396 -1.66667,1.87501 -4.08854,1.87501 -2.21355,0 -3.54168,-1.53646 -1.32812,-1.53646 -1.32812,-4.29688 0,-3.25522 1.875,-5.00001 1.51042,-1.40625 3.4375,-1.40625 1.95313,0 3.09897,1.09375 1.27604,1.19792 1.48437,3.67188 h -8.09896 q 0,3.125 1.40625,4.5573 1.09375,1.11979 2.73438,1.11979 1.51041,0 2.65625,-0.98959 0.65104,-0.57291 1.38021,-1.74479 z m -8.09897,-3.77605 h 5.36459 q -0.20833,-1.35416 -0.54688,-1.95312 -0.59895,-1.04167 -1.95312,-1.04167 -1.17188,0 -1.875,0.67708 -0.67709,0.65105 -0.98959,2.31771 z"
       style="font-style:normal;font-variant:normal;font-weight:normal;font-stretch:normal;font-size:26.6667px;font-family:aakar;-inkscape-font-specification:'aakar, Normal';font-variant-ligatures:normal;font-variant-caps:normal;font-variant-numeric:normal;font-variant-east-asian:normal"
       id="path2238" />
    <path
       d="m 862.88304,757.39886 v -3.77605 q -2.57813,0.85938 -3.56772,1.97917 -0.65104,0.72917 -0.65104,1.66667 0,0.9375 0.49479,1.51042 0.4948,0.57292 1.22396,0.57292 0.39063,0 0.85938,-0.15625 0.46875,-0.15625 0.75521,-0.3125 0.57292,-0.26042 0.72917,-0.54688 0.15625,-0.3125 0.15625,-0.9375 z m 4.03646,1.48438 v 0.67708 q -0.70313,0.83334 -1.40625,1.11979 -0.44271,0.1823 -0.91146,0.1823 -0.65104,0 -1.01563,-0.23438 -0.67708,-0.44271 -0.67708,-1.66667 -0.96354,0.85938 -1.69271,1.27605 -1.09375,0.625 -2.08334,0.625 -1.11979,0 -1.95313,-0.72917 -0.80729,-0.72917 -0.80729,-1.97917 0,-1.77084 1.66667,-2.91667 1.14584,-0.78125 4.84376,-2.23959 v -1.58854 q 0,-1.22396 -0.70313,-1.77084 -0.52083,-0.39062 -1.30208,-0.39062 -0.70313,0 -1.27605,0.36458 -0.57291,0.33854 -0.57291,0.91146 0,0.26042 0.026,0.54688 0.0521,0.26041 0.10416,0.46875 0,0.44271 -0.33854,0.78125 -0.33854,0.33854 -0.83333,0.33854 -0.54688,0 -0.83334,-0.36458 -0.28646,-0.39063 -0.28646,-0.78125 0,-0.96355 0.98959,-1.82292 1.22396,-1.06771 3.25521,-1.06771 2.52605,0 3.38542,1.48437 0.49479,0.85938 0.49479,2.6823 v 5.07813 q 0,0.80729 0.10417,1.17188 0.13021,0.33854 0.65104,0.33854 0.36459,0 0.625,-0.13021 0.26042,-0.13021 0.54688,-0.36458 z"
       style="font-style:normal;font-variant:normal;font-weight:normal;font-stretch:normal;font-size:26.6667px;font-family:aakar;-inkscape-font-specification:'aakar, Normal';font-variant-ligatures:normal;font-variant-caps:normal;font-variant-numeric:normal;font-variant-east-asian:normal"
       id="path2240" />
    <path
       d="m 873.61222,748.88322 v 0.83334 h -2.63021 v 7.44793 q 0,0.98958 0.15625,1.45833 0.3125,0.88542 1.17187,0.88542 0.57292,0 0.98959,-0.3125 0.23437,-0.18229 0.59896,-0.59896 l 0.33854,0.28646 q -0.46875,0.85937 -1.32813,1.43229 -0.83333,0.54688 -1.71875,0.54688 -1.09375,0 -1.69271,-0.67709 -0.70313,-0.80729 -0.70313,-2.63021 v -7.83855 h -1.38021 l -0.10416,-0.18229 q 0,-0.15625 0.52083,-0.52084 0.33854,-0.23437 0.625,-0.52083 0.59896,-0.625 1.17188,-1.35417 0.44271,-0.57292 1.17187,-1.61458 0.1823,0 0.1823,0.33854 v 3.02083 z"
       style="font-style:normal;font-variant:normal;font-weight:normal;font-stretch:normal;font-size:26.6667px;font-family:aakar;-inkscape-font-specification:'aakar, Normal';font-variant-ligatures:normal;font-variant-caps:normal;font-variant-numeric:normal;font-variant-east-asian:normal"
       id="path2242" />
    <path
       d="m 886.68515,759.2999 v 0.36459 q -1.01562,0.26042 -1.875,0.54687 -0.20833,0.0781 -1.74479,0.62501 l -0.0521,-0.0521 v -2.16146 l -1.11979,1.11979 q -0.49479,0.4948 -1.25,0.8073 -0.72917,0.3125 -1.48438,0.3125 -1.11979,0 -1.95313,-0.65105 -1.14583,-0.88541 -1.14583,-2.73437 v -6.56251 q 0,-1.04167 -0.49479,-1.40625 -0.36459,-0.26042 -1.1198,-0.26042 v -0.36459 h 3.80209 v 8.4896 q 0,0.59896 0.3125,1.11979 0.52084,0.85938 1.64063,0.85938 0.625,0 1.11979,-0.20834 0.52084,-0.23437 1.14584,-0.72916 0.18229,-0.15625 0.28646,-0.44271 0.1302,-0.3125 0.1302,-0.88542 v -6.1198 q 0,-0.91146 -0.26041,-1.19792 -0.39063,-0.44271 -1.66667,-0.44271 v -0.44271 h 4.11459 v 8.93231 q 0,0.83333 0.20833,1.09375 0.3125,0.39062 1.40625,0.39062 z"
       style="font-style:normal;font-variant:normal;font-weight:normal;font-stretch:normal;font-size:26.6667px;font-family:aakar;-inkscape-font-specification:'aakar, Normal';font-variant-ligatures:normal;font-variant-caps:normal;font-variant-numeric:normal;font-variant-east-asian:normal"
       id="path2244" />
    <path
       d="m 889.21119,758.41449 v -6.51043 q 0,-1.01562 -0.28645,-1.35417 -0.1823,-0.20833 -0.62501,-0.20833 -0.26041,0 -0.41666,0.026 -0.15625,0 -0.46875,0.0781 v -0.41667 q 2.05729,-0.67708 3.85417,-1.40625 l 0.13021,0.0521 v 2.31771 q 0.9375,-1.35417 1.64062,-1.84896 0.72917,-0.52083 1.51042,-0.52083 1.40625,0 1.40625,1.40625 0,0.49479 -0.28645,0.83333 -0.26042,0.3125 -0.70313,0.3125 -0.49479,0 -1.01563,-0.4427 -0.49479,-0.46875 -0.78125,-0.46875 -0.46875,0 -1.11979,0.7552 -0.65104,0.75521 -0.65104,1.38021 v 5.85939 q 0,1.22396 0.59896,1.64062 0.46875,0.3125 1.61458,0.3125 v 0.39063 h -6.25001 v -0.39063 q 1.17188,-0.20833 1.45834,-0.4427 0.39062,-0.31251 0.39062,-1.35417 z"
       style="font-style:normal;font-variant:normal;font-weight:normal;font-stretch:normal;font-size:26.6667px;font-family:aakar;-inkscape-font-specification:'aakar, Normal';font-variant-ligatures:normal;font-variant-caps:normal;font-variant-numeric:normal;font-variant-east-asian:normal"
       id="path2246" />
    <path
       d="m 906.52893,756.33115 0.41667,0.18229 q -0.44271,1.35417 -1.4323,2.47396 -1.66667,1.87501 -4.08854,1.87501 -2.21355,0 -3.54168,-1.53646 -1.32812,-1.53646 -1.32812,-4.29688 0,-3.25522 1.875,-5.00001 1.51042,-1.40625 3.4375,-1.40625 1.95313,0 3.09897,1.09375 1.27604,1.19792 1.48437,3.67188 h -8.09896 q 0,3.125 1.40625,4.5573 1.09375,1.11979 2.73438,1.11979 1.51041,0 2.65625,-0.98959 0.65104,-0.57291 1.38021,-1.74479 z m -8.09897,-3.77605 h 5.36459 q -0.20833,-1.35416 -0.54688,-1.95312 -0.59895,-1.04167 -1.95312,-1.04167 -1.17188,0 -1.87501,0.67708 -0.67708,0.65105 -0.98958,2.31771 z"
       style="font-style:normal;font-variant:normal;font-weight:normal;font-stretch:normal;font-size:26.6667px;font-family:aakar;-inkscape-font-specification:'aakar, Normal';font-variant-ligatures:normal;font-variant-caps:normal;font-variant-numeric:normal;font-variant-east-asian:normal"
       id="path2248" />
    <path
       d="m 915.66957,752.4249 h -0.39063 q -0.39062,-1.84896 -1.22396,-2.60417 -0.65104,-0.59896 -1.66667,-0.59896 -0.96354,0 -1.48437,0.54687 -0.4948,0.52084 -0.4948,1.14584 0,0.65104 0.28646,1.09375 0.3125,0.44271 0.83334,0.75521 l 2.8125,1.66667 q 1.11979,0.67708 1.5625,1.22396 0.625,0.75521 0.625,1.84896 0,1.58854 -1.25,2.52604 -1.09375,0.83334 -2.52604,0.83334 -0.62501,0 -1.66667,-0.23438 -1.04167,-0.23437 -1.35417,-0.23437 -0.36459,0 -0.57292,0.3125 h -0.33854 v -4.06251 h 0.41667 q 0.36458,1.64063 0.83333,2.34375 0.85938,1.30209 2.52605,1.30209 0.80729,0 1.38021,-0.39063 0.72916,-0.49479 0.72916,-1.51041 0,-1.17188 -1.35417,-1.92709 l -1.51041,-0.85938 q -1.90105,-1.06771 -2.47397,-1.90104 -0.57291,-0.85938 -0.57291,-1.90104 0,-1.25001 0.85937,-2.13542 1.01563,-1.04167 2.78647,-1.04167 0.57291,0 1.17187,0.18229 0.59896,0.15625 1.22396,0.33854 0.23438,0 0.44271,-0.28646 h 0.28646 z"
       style="font-style:normal;font-variant:normal;font-weight:normal;font-stretch:normal;font-size:26.6667px;font-family:aakar;-inkscape-font-specification:'aakar, Normal';font-variant-ligatures:normal;font-variant-caps:normal;font-variant-numeric:normal;font-variant-east-asian:normal"
       id="path2250" />
  </g>
  <text
     xml:space="preserve"
     style="font-style:normal;font-weight:normal;font-size:40px;line-height:1.25;font-family:sans-serif;letter-spacing:0px;word-spacing:0px;fill:#000000;fill-opacity:1;stroke:none"
     x="260.34973"
     y="585.90796"
     id="text2222-0"><tspan
       sodipodi:role="line"
       x="260.34973"
       y="585.90796"
       style="font-style:normal;font-variant:normal;font-weight:normal;font-stretch:normal;font-size:26.6667px;font-family:aakar;-inkscape-font-specification:'aakar, Normal';font-variant-ligatures:normal;font-variant-caps:normal;font-variant-numeric:normal;font-variant-east-asian:normal"
       id="tspan2269">Classes</tspan></text>
  <text
     xml:space="preserve"
     style="font-style:normal;font-weight:normal;font-size:40px;line-height:1.25;font-family:sans-serif;letter-spacing:0px;word-spacing:0px;fill:#000000;fill-opacity:1;stroke:none"
     x="479.4541"
     y="587.08429"
     id="text2222-0-4"><tspan
       sodipodi:role="line"
       x="479.4541"
       y="587.08429"
       style="font-style:normal;font-variant:normal;font-weight:normal;font-stretch:normal;font-size:26.6667px;font-family:aakar;-inkscape-font-specification:'aakar, Normal';font-variant-ligatures:normal;font-variant-caps:normal;font-variant-numeric:normal;font-variant-east-asian:normal"
       id="tspan2269-8">Probabilities</tspan></text>
</svg>
